<svg xmlns="http://www.w3.org/2000/svg" xmlns:xlink="http://www.w3.org/1999/xlink" viewBox="0,0,256,256" width="64px" height="64px" fill-rule="nonzero"><g fill="#51b8ff" fill-rule="nonzero" stroke="none" stroke-width="1" stroke-linecap="butt" stroke-linejoin="miter" stroke-miterlimit="10" stroke-dasharray="" stroke-dashoffset="0" font-family="none" font-weight="none" font-size="none" text-anchor="none" style="mix-blend-mode: normal"><g transform="scale(8,8)"><path d="M16,3c-7.2,0 -13,5.8 -13,13c0,7.2 5.8,13 13,13c7.2,0 13,-5.8 13,-13c0,-7.2 -5.8,-13 -13,-13zM16,5c6.1,0 11,4.9 11,11c0,6.1 -4.9,11 -11,11c-6.1,0 -11,-4.9 -11,-11c0,-6.1 4.9,-11 11,-11zM16.20898,9.04492c-0.4498,0.07656 -0.9082,1.45508 -0.9082,1.45508c0,0 -1.20117,-0.19922 -2.20117,0.80078c-0.2,0.2 -0.39922,0.29844 -0.69922,0.39844c-0.1,0.1 -0.20039,0.10117 -0.40039,0.70117c-0.4,0.9 0.59961,2 0.59961,2c-2.1,1.5 -2.00039,3.5 -1.90039,4c-1.3,1.1 -0.8,2.50039 -0.5,2.90039c0.2,0.3 0.4,0.19922 0.5,0.19922c0,0.1 -0.5,0.70039 0,0.90039c0.5,0.3 1.30117,0.4 1.70117,0c0.3,-0.3 0.4,-0.90117 0.5,-1.20117c0.1,-0.1 0.1,0.20039 0.5,0.40039c0,0 -0.70039,0.3 -0.40039,1c0.1,0.2 0.4,0.40039 1,0.40039c0.2,0 2.59922,-0.10078 3.19922,-0.30078c0.4,-0.1 0.5,-0.29883 0.5,-0.29883c2.6,-0.7 3.10039,-1.80117 4.90039,-2.20117c0.6,-0.1 0.6,-1.1 -0.5,-1c-0.8,0 -1.49961,0.40078 -2.09961,0.80078c-1,0.6 -1.69922,0.69961 -1.69922,0.59961c-0.1,-0.1 0.39844,-1.29961 -0.10156,-2.59961c-0.5,-1.4 -1.39883,-1.80039 -1.29883,-1.90039c0.3,-0.5 0.99883,-1.29922 1.29883,-2.69922c0.1,-0.9 0.10117,-2.39961 -0.29883,-3.09961c-0.1,-0.2 -0.70117,0.19922 -0.70117,0.19922c0,0 -0.59883,-1.30039 -0.79883,-1.40039c-0.0625,-0.05 -0.12715,-0.06563 -0.19141,-0.05469z"></path></g></g></svg>